<svg width="29" height="29" viewBox="0 0 29 29" fill="none" xmlns="http://www.w3.org/2000/svg">
<path fill-rule="evenodd" clip-rule="evenodd" d="M28.42 14.8296C28.42 13.8014 28.3277 12.8128 28.1563 11.8637H14.5V17.4725H22.3036C21.9675 19.285 20.9459 20.8207 19.4102 21.8489V25.4871H24.0963C26.8382 22.9627 28.42 19.2455 28.42 14.8296Z" fill="#4285F4"/>
<path fill-rule="evenodd" clip-rule="evenodd" d="M14.4999 29C18.4149 29 21.6972 27.7016 24.0963 25.487L19.4101 21.8488C18.1117 22.7188 16.4508 23.2329 14.4999 23.2329C10.7233 23.2329 7.52676 20.6822 6.38653 17.255H1.54222V21.0118C3.92813 25.7506 8.83176 29 14.4999 29Z" fill="#34A853"/>
<path fill-rule="evenodd" clip-rule="evenodd" d="M6.38658 17.255C6.09658 16.385 5.93181 15.4557 5.93181 14.5C5.93181 13.5443 6.09658 12.615 6.38658 11.745V7.98821H1.54227C0.560226 9.94571 0 12.1603 0 14.5C0 16.8398 0.560226 19.0543 1.54227 21.0118L6.38658 17.255Z" fill="#FBBC05"/>
<path fill-rule="evenodd" clip-rule="evenodd" d="M14.4999 5.76703C16.6288 5.76703 18.5401 6.49862 20.0429 7.93544L24.2017 3.77658C21.6906 1.43682 18.4083 0 14.4999 0C8.83176 0 3.92813 3.24931 1.54222 7.98817L6.38653 11.745C7.52676 8.31771 10.7233 5.76703 14.4999 5.76703Z" fill="#EA4335"/>
</svg>
