<svg width="34" height="34" viewBox="0 0 34 34" fill="none" xmlns="http://www.w3.org/2000/svg">
<path d="M24.0833 25.5002C24.8347 25.5002 25.5554 25.7987 26.0868 26.33C26.6181 26.8614 26.9166 27.5821 26.9166 28.3335C26.9166 29.0849 26.6181 29.8056 26.0868 30.337C25.5554 30.8683 24.8347 31.1668 24.0833 31.1668C22.5108 31.1668 21.25 29.8918 21.25 28.3335C21.25 26.761 22.5108 25.5002 24.0833 25.5002ZM1.41663 2.8335H6.04913L7.38079 5.66683H28.3333C28.709 5.66683 29.0694 5.81609 29.335 6.08176C29.6007 6.34744 29.75 6.70777 29.75 7.0835C29.75 7.32433 29.6791 7.56516 29.58 7.79183L24.5083 16.9577C24.0266 17.8218 23.0916 18.4168 22.0291 18.4168H11.475L10.2 20.726L10.1575 20.896C10.1575 20.9899 10.1948 21.08 10.2612 21.1464C10.3276 21.2128 10.4177 21.2502 10.5116 21.2502H26.9166V24.0835H9.91663C8.34413 24.0835 7.08329 22.8085 7.08329 21.2502C7.08329 20.7543 7.21079 20.2868 7.42329 19.8902L9.34996 16.4193L4.24996 5.66683H1.41663V2.8335ZM9.91663 25.5002C10.6681 25.5002 11.3887 25.7987 11.9201 26.33C12.4514 26.8614 12.75 27.5821 12.75 28.3335C12.75 29.0849 12.4514 29.8056 11.9201 30.337C11.3887 30.8683 10.6681 31.1668 9.91663 31.1668C8.34413 31.1668 7.08329 29.8918 7.08329 28.3335C7.08329 26.761 8.34413 25.5002 9.91663 25.5002ZM22.6666 15.5835L26.605 8.50016H8.69829L12.0416 15.5835H22.6666Z" fill="#060606"/>
</svg>
