<svg width="15" height="15" viewBox="0 0 15 15" fill="none" xmlns="http://www.w3.org/2000/svg">
<path d="M11.25 5.625C11.9438 5.625 12.5 6.18125 12.5 6.875V8.75C12.5 9.44375 11.9438 10 11.25 10H9.85625L9.08125 9.23125C8.6125 8.75 7.98125 8.5 7.3125 8.5C6.64375 8.5 6.01875 8.75 5.54375 9.23125L4.775 10H3.75C3.05625 10 2.5 9.44375 2.5 8.75V6.875C2.5 6.18125 3.05625 5.625 3.75 5.625H11.25ZM11.25 4.375H3.75C3.08696 4.375 2.45107 4.63839 1.98223 5.10723C1.51339 5.57607 1.25 6.21196 1.25 6.875H0.625V8.75H1.25C1.25 9.41304 1.51339 10.0489 1.98223 10.5178C2.45107 10.9866 3.08696 11.25 3.75 11.25H5.3125C5.3375 11.2125 5.36875 11.175 6.43125 10.1125C6.675 9.86875 6.99375 9.75 7.3125 9.75C7.6375 9.75 7.95625 9.86875 8.2 10.1125L9.31875 11.25H11.25C11.913 11.25 12.5489 10.9866 13.0178 10.5178C13.4866 10.0489 13.75 9.41304 13.75 8.75H14.375V6.875H13.75C13.75 6.21196 13.4866 5.57607 13.0178 5.10723C12.5489 4.63839 11.913 4.375 11.25 4.375Z" fill="#4F4F51"/>
</svg>
