<svg width="24" height="24" viewBox="0 0 24 24" fill="none" xmlns="http://www.w3.org/2000/svg">
<path d="M12.2177 18.3735L12.1177 18.4735L12.0077 18.3735C7.25768 14.0635 4.11768 11.2135 4.11768 8.32349C4.11768 6.32349 5.61768 4.82349 7.61768 4.82349C9.15768 4.82349 10.6577 5.82349 11.1877 7.18349H13.0477C13.5777 5.82349 15.0777 4.82349 16.6177 4.82349C18.6177 4.82349 20.1177 6.32349 20.1177 8.32349C20.1177 11.2135 16.9777 14.0635 12.2177 18.3735ZM16.6177 2.82349C14.8777 2.82349 13.2077 3.63349 12.1177 4.90349C11.0277 3.63349 9.35768 2.82349 7.61768 2.82349C4.53768 2.82349 2.11768 5.23349 2.11768 8.32349C2.11768 12.0935 5.51768 15.1835 10.6677 19.8535L12.1177 21.1735L13.5677 19.8535C18.7177 15.1835 22.1177 12.0935 22.1177 8.32349C22.1177 5.23349 19.6977 2.82349 16.6177 2.82349Z" fill="#4F4F51"/>
</svg>
