<svg width="15" height="15" viewBox="0 0 15 15" fill="none" xmlns="http://www.w3.org/2000/svg">
<path d="M9.41875 7.03125L8.85625 7.60625C8.40625 8.05625 8.125 8.4375 8.125 9.375H6.875V9.0625C6.875 8.36875 7.15625 7.74375 7.60625 7.29375L8.38125 6.50625C8.6125 6.28125 8.75 5.96875 8.75 5.625C8.75 4.93125 8.1875 4.375 7.5 4.375C7.16848 4.375 6.85054 4.5067 6.61612 4.74112C6.3817 4.97554 6.25 5.29348 6.25 5.625H5C5 4.96196 5.26339 4.32607 5.73223 3.85723C6.20107 3.38839 6.83696 3.125 7.5 3.125C8.16304 3.125 8.79893 3.38839 9.26777 3.85723C9.73661 4.32607 10 4.96196 10 5.625C10 6.175 9.775 6.66875 9.41875 7.03125ZM8.125 11.875H6.875V10.625H8.125M7.5 1.25C6.67924 1.25 5.86651 1.41166 5.10823 1.72575C4.34994 2.03984 3.66095 2.50022 3.08058 3.08058C1.90848 4.25269 1.25 5.8424 1.25 7.5C1.25 9.1576 1.90848 10.7473 3.08058 11.9194C3.66095 12.4998 4.34994 12.9602 5.10823 13.2742C5.86651 13.5883 6.67924 13.75 7.5 13.75C9.1576 13.75 10.7473 13.0915 11.9194 11.9194C13.0915 10.7473 13.75 9.1576 13.75 7.5C13.75 4.04375 10.9375 1.25 7.5 1.25Z" fill="#4F4F51"/>
</svg>
