<svg width="15" height="15" viewBox="0 0 15 15" fill="none" xmlns="http://www.w3.org/2000/svg">
<path d="M7.5 0.625L1.875 3.125V6.875C1.875 10.3438 4.275 13.5875 7.5 14.375C10.725 13.5875 13.125 10.3438 13.125 6.875V3.125L7.5 0.625ZM7.5 4.375C8.375 4.375 9.25 5.0625 9.25 5.9375V6.875C9.625 6.875 10 7.25 10 7.6875V9.875C10 10.25 9.625 10.625 9.1875 10.625H5.75C5.375 10.625 5 10.25 5 9.8125V7.625C5 7.25 5.375 6.875 5.75 6.875V5.9375C5.75 5.0625 6.625 4.375 7.5 4.375ZM7.5 5.125C7 5.125 6.5625 5.4375 6.5625 5.9375V6.875H8.4375V5.9375C8.4375 5.4375 8 5.125 7.5 5.125Z" fill="#4F4F51"/>
</svg>
