<svg width="28" height="32" viewBox="0 0 28 32" fill="none" xmlns="http://www.w3.org/2000/svg">
<path d="M23.3186 30.7114C21.5178 32.3959 19.5309 32.1333 17.6371 31.339C15.6236 30.5288 13.783 30.4776 11.6566 31.339C9.00852 32.4407 7.6031 32.1204 6.0083 30.7114C-2.99571 21.7766 -1.66671 8.16621 8.56663 7.65382C11.0485 7.78192 12.7862 8.97643 14.2481 9.07571C16.421 8.64978 18.5009 7.42965 20.8267 7.58978C23.6209 7.80754 25.7108 8.87075 27.1062 10.7826C21.3583 14.1131 22.7205 21.4147 28 23.4643C26.9434 26.1383 25.5879 28.7803 23.3153 30.7338L23.3186 30.7114ZM14.0488 7.55775C13.7796 3.58673 17.1188 0.320244 20.9596 0C21.4879 4.57948 16.6403 8.00609 14.0488 7.55775Z" fill="#1E1E1E"/>
</svg>
