<svg width="261" height="40" viewBox="0 0 261 40" fill="none" xmlns="http://www.w3.org/2000/svg">
<rect x="0.5" y="0.5" width="260" height="39" rx="9.5" fill="#FEFEFE" stroke="#060606"/>
<mask id="path-2-inside-1_75_32" fill="white">
<path d="M207 9C207 4.58172 210.582 1 215 1H252C256.418 1 260 4.58172 260 9V31C260 35.4183 256.418 39 252 39H215C210.582 39 207 35.4183 207 31V9Z"/>
</mask>
<path d="M207 9C207 4.58172 210.582 1 215 1H252C256.418 1 260 4.58172 260 9V31C260 35.4183 256.418 39 252 39H215C210.582 39 207 35.4183 207 31V9Z" fill="#FFCE99"/>
<path d="M207 1H260H207ZM260 39H207H260ZM207 39V1V39ZM252 1C256.971 1 261 5.02944 261 10V30C261 34.9706 256.971 39 252 39C255.866 39 259 35.4183 259 31V9C259 4.58172 255.866 1 252 1Z" fill="#060606" mask="url(#path-2-inside-1_75_32)"/>
<path d="M233.083 10.5C235.095 10.5 237.023 11.299 238.446 12.7211C239.868 14.1433 240.667 16.0721 240.667 18.0833C240.667 19.9617 239.978 21.6883 238.847 23.0183L239.162 23.3333H240.083L245.917 29.1667L244.167 30.9167L238.333 25.0833V24.1617L238.018 23.8467C236.688 24.9783 234.962 25.6667 233.083 25.6667C231.072 25.6667 229.143 24.8677 227.721 23.4456C226.299 22.0234 225.5 20.0946 225.5 18.0833C225.5 16.0721 226.299 14.1433 227.721 12.7211C229.143 11.299 231.072 10.5 233.083 10.5ZM233.083 12.8333C230.167 12.8333 227.833 15.1667 227.833 18.0833C227.833 21 230.167 23.3333 233.083 23.3333C236 23.3333 238.333 21 238.333 18.0833C238.333 15.1667 236 12.8333 233.083 12.8333Z" fill="#4F4F51"/>
</svg>
